<svg width="170" height="49" viewBox="0 0 170 49" fill="none" xmlns="http://www.w3.org/2000/svg">
<path fill-rule="evenodd" clip-rule="evenodd" d="M18.4108 8.09399V21.8876H5.92764V8.09399H0V41.0182H5.92764V27.6746H18.4108V41.0182H24.3378V8.09399H18.4108Z" fill="#33475B"/>
<path fill-rule="evenodd" clip-rule="evenodd" d="M43.3048 30.3767C43.3048 33.1189 41.104 35.3502 38.4023 35.3502C35.6993 35.3502 33.4997 33.1189 33.4997 30.3767V16.2748H27.8856V30.3767C27.8856 36.2597 32.604 41.0456 38.4023 41.0456C44.1993 41.0456 48.9164 36.2597 48.9164 30.3767V16.2748H43.3048V30.3767Z" fill="#33475B"/>
<path fill-rule="evenodd" clip-rule="evenodd" d="M84.9577 17.7268C84.9577 14.8355 86.8437 13.9191 88.909 13.9191C90.5711 13.9191 92.7713 15.2026 94.2064 16.7628L97.8874 12.3602C96.0484 9.83783 92.3216 8.09436 89.2678 8.09436C83.1608 8.09436 78.7604 11.7181 78.7604 17.7268C78.7604 28.8718 92.1874 25.339 92.1874 31.5786C92.1874 33.5029 90.3466 35.2012 88.2366 35.2012C84.9131 35.2012 83.8344 33.5499 82.3084 31.8071L78.2216 36.1175C80.8269 39.3741 84.0595 41.0266 87.9212 41.0266C93.714 41.0266 98.3841 37.357 98.3841 31.6226C98.3841 19.2393 84.9577 23.0928 84.9577 17.7268Z" fill="#33475B"/>
<path fill-rule="evenodd" clip-rule="evenodd" d="M168.022 35.7589C164.701 35.7589 163.759 34.3015 163.759 32.0683V22.1808H168.921V17.1695H163.759V10.5615L158.057 13.1588V33.2985C158.057 38.4478 161.558 41.0457 166.361 41.0457C167.08 41.0457 168.068 40.9986 168.608 40.8637L170 35.6692C169.372 35.7131 168.653 35.7589 168.022 35.7589Z" fill="#33475B"/>
<path fill-rule="evenodd" clip-rule="evenodd" d="M64.6665 35.2949C61.1393 35.2949 58.2795 32.3931 58.2795 28.8139C58.2795 25.2347 61.1393 22.3328 64.6665 22.3328C68.1938 22.3328 71.0536 25.2347 71.0536 28.8139C71.0536 32.3931 68.1938 35.2949 64.6665 35.2949ZM64.7019 16.4399C61.9172 16.4399 59.9745 17.2602 58.097 19.1294V8.29089H52.4659V28.378C52.4659 35.8961 57.8225 41.0454 63.8416 41.0454C70.5326 41.0454 76.3955 35.8045 76.3955 28.7433C76.3955 21.7712 70.989 16.4399 64.7019 16.4399Z" fill="#33475B"/>
<mask id="mask0_1_1025" style="mask-type:alpha" maskUnits="userSpaceOnUse" x="101" y="16" width="25" height="33">
<path d="M125.838 48.8991H101.909V16.1443H125.838V48.8991Z" fill="white"/>
</mask>
<g mask="url(#mask0_1_1025)">
<path fill-rule="evenodd" clip-rule="evenodd" d="M114.11 34.8569C110.582 34.8569 107.722 31.955 107.722 28.3758C107.722 24.7966 110.582 21.8948 114.11 21.8948C117.637 21.8948 120.496 24.7966 120.496 28.3758C120.496 31.955 117.637 34.8569 114.11 34.8569ZM125.838 28.4464C125.838 21.3852 119.975 16.1443 113.284 16.1443C107.265 16.1443 101.909 21.2936 101.909 28.8117V48.8994H107.54V38.0603C109.417 39.9301 111.36 40.7504 114.145 40.7504C120.432 40.7504 125.838 35.4185 125.838 28.4464Z" fill="#33475B"/>
</g>
<mask id="mask1_1_1025" style="mask-type:alpha" maskUnits="userSpaceOnUse" x="109" y="0" width="46" height="49">
<path d="M109.193 0.00012207H154.533V48.2116H109.193V0.00012207Z" fill="white"/>
</mask>
<g mask="url(#mask1_1_1025)">
<path fill-rule="evenodd" clip-rule="evenodd" d="M142.131 34.7412C138.619 34.7412 135.772 31.8523 135.772 28.2892C135.772 24.7255 138.619 21.8367 142.131 21.8367C145.643 21.8367 148.49 24.7255 148.49 28.2892C148.49 31.8523 145.643 34.7412 142.131 34.7412ZM144.034 15.867V10.127C145.511 9.41935 146.545 7.90372 146.545 6.14477V6.01227C146.545 3.58466 144.588 1.59849 142.195 1.59849H142.065C139.673 1.59849 137.716 3.58466 137.716 6.01227V6.14477C137.716 7.90372 138.75 9.41997 140.226 10.1276V15.867C138.028 16.2118 136.019 17.1319 134.363 18.4859L118.831 6.22649C118.934 5.82715 119.006 5.41605 119.007 4.9839C119.009 2.23495 116.816 0.00298559 114.106 -0.000729197C111.397 -0.00382485 109.197 2.22195 109.193 4.97151C109.19 7.72108 111.383 9.95304 114.094 9.95614C114.976 9.95738 115.794 9.70292 116.51 9.28934L131.788 21.3494C130.489 23.3393 129.728 25.7229 129.728 28.2892C129.728 30.9756 130.564 33.4608 131.977 35.5046L127.331 40.2193C126.964 40.1072 126.583 40.0292 126.18 40.0292C123.953 40.0292 122.148 41.8606 122.148 44.1198C122.148 46.3796 123.953 48.211 126.18 48.211C128.407 48.211 130.211 46.3796 130.211 44.1198C130.211 43.7112 130.135 43.3242 130.024 42.9515L134.62 38.2882C136.706 39.9035 139.304 40.8743 142.131 40.8743C148.981 40.8743 154.533 35.2396 154.533 28.2892C154.533 21.997 149.978 16.7988 144.034 15.867Z" fill="#FF7A59"/>
</g>
</svg>
